<svg xmlns="http://www.w3.org/2000/svg" width="50" height="54"><path fill="#14274d" d="M36.819 47.843c-.68 2.68-2.39 4.79-4.63 5.47-2.93.9-5.46-.55-7.17-2.42-1.83 1.98-4.32 3.29-7.16 2.49-2.28-.64-4.04-2.8-4.57-5.53-3.98-.46-7.35-3.21-7.33-7.62-4.02-1.23-5.93-5.49-4.19-9.26-3-3.88-1.92-9.2 2.02-12.18-.98-2.51-.46-4.96 1.81-6.3.55-3.76 3.52-6.33 7.38-6.37.39-2.85 2.45-4.68 4.53-5.39 2.97-1.02 5.57.27 7.37 2.5 1.85-2.08 4.34-3.41 7.34-2.61 2.32.62 4.18 2.79 4.85 5.41 3.95.03 7.12 2.75 6.84 6.8 3.32 1.12 4.54 4.47 3.72 7.7 2.79 2.98 3.18 7.2.55 10.42 1.52 3.79-.12 7.93-4.07 9.23-.15 4.23-3.16 7.15-7.31 7.64zm-19.52-2.11-2.31 1.75c-.17 2.32 1.86 3.94 3.91 4.37 1.54.32 5-.49 5.01-2.87l.07-27.14-.06-3.57-.02-12.9c0-2.85-3.73-3.73-5.74-3.08-2.53.81-3.93 2.81-3.56 5.91-2.14-.45-3.6-.33-5.09.67s-2 2.73-2.32 4.55c-.82.59-2.27 1.68-2.25 2.55.03 1.15.62 2.08 1.65 3.5-2.67.64-4.01 2.66-4.56 4.53-.84 2.89.19 4.77 1.75 6.78-.97 1.69-1.44 3.81-.31 5.6.87 1.37 2.27 2.26 4.46 2.48-.71 2.38 0 4.54 1.67 5.8 1.76 1.33 3.82 1.88 5.81.66l1.38-.84c.22-.13.72 1.09.51 1.25m25.78-7.19c1.84-.06 3.34-1.62 3.87-3.13.61-1.74-.03-3.24-1.18-4.86 1.99-1.25 2.79-2.93 2.54-5.06-.16-1.44-1.39-3.06-2.7-4.34.43-1.36 1-3.26.31-4.54-.74-1.38-1.94-2.08-3.74-2.43l.15-2.03c.21-2.84-3.18-4.82-5.73-4.16-.29.08-1.25-.08-1.24-.34l.02-1.2c.05-2.37-2.05-3.88-4.19-4.3-1.72-.34-5.15.58-5.19 2.95l-.22 12.76c.93.97.81 2.04 0 3.14l.17 27.89c.01 2.46 3.63 3.32 5.46 2.84 1.6-.41 4.03-2 3.49-4.12-.14-.56-.51-1.75-.25-1.97 2.3.51 4.13.43 5.81-1.05 3.74-3.3.65-5.99 1.27-6.01l1.35-.05z" class="cls-222"/><path fill="#29a6a4" d="M36.369 24.263c-.79 1.88-3.65 4.32-3.97 4.32-.38 0-1.26-.41-1.73-.68l4.04-3.54c.55-2.61 1.93-3.66 4.43-4.29-.07-.42 1.1-1.76 1.37-1.44.86 1.13-.22 3.29-2.28 3.35-.73.02-1.48 1.4-1.86 2.29zM32.289 40.823c-1.01 2.46.45 5.25-1.14 4.5-1.71-.81-1.73-3.68-.95-4.58.2-.23.82-.62 1.06-.75.32-.16 1.17.51 1.04.83zM36.579 34.023l-3.58-2.63c-.29-.21-.75-.81-.88-1.12s.62-1.01.8-1.01l3.58 2.66c.34.25.38 1.23.08 2.11zM40.449 26.413c.4-.35 2.07.2 2.01.7s-.34 1.43-.58 1.94c-.21.45-1.44.17-1.75-.25-.44-.6-.39-1.78.32-2.4zM10.969 16.053c-.24-.25-.04-1.67.25-1.67.39 0 1.11.26 1.32.62l1.23 2.08c1.22-.57 1.9-1.41 2.26-2.77.65-2.47 2.27-3.76 2.59-3.46l.86.79c.62.57-2.19 1.34-2.42 4.55l-3.21 2.85-2.89-2.98zM17.529 28.153c-2.79-3.54-6.56-.08-7.04-.7l-1.24-1.6 4.27-.81c.03-1.39.15-1.86.72-2.52l1.34 2.57c1.27.25 3.19 1.61 3.67 2.62.1.22-.49 1.17-.71 1.08s-.85-.43-1.01-.63zM18.519 40.503c-1.01.12.68-1.97-1.87-3.62-.4-.26-1.02-1.02-.94-1.43s1.24-.66 1.66-.48c1.64.71 2.76 3.34 2.21 4.76-.11.28-.81.73-1.06.76z" class="cls-305"/></svg>