<svg xmlns="http://www.w3.org/2000/svg" width="48" height="49"><path fill="#fff" d="M47.945 8.635c0-2.63-2.66-4.32-4.64-4.4l-5.24-.19c.37-1.86.41-3.42-1.07-4.04-.53.96-.7 2.78-.62 4.13h-24.68l-.18-2.98c-.02-.26-.43-.87-.64-1.05s-1.06.41-1.07.69l-.18 3.34-5.14.13c-2.86.07-4.45 2.52-4.44 5.12l.03 34.69c0 2.68 2.14 4.89 4.87 4.89l37.8.02c2.35 0 5.21-1.82 5.21-4.42V8.625z" class="cls-15"/><path fill="#14274d" d="M47.945 8.635v35.94c0 2.6-2.86 4.42-5.2 4.42l-37.8-.02c-2.73 0-4.87-2.21-4.87-4.89l-.03-34.69c0-2.61 1.59-5.05 4.44-5.12l5.14-.13.18-3.34c.01-.28.86-.87 1.07-.69s.63.79.64 1.05l.18 2.99h24.68c-.08-1.36.09-3.18.62-4.14 1.48.61 1.45 2.17 1.07 4.04l5.24.19c1.98.07 4.64 1.77 4.64 4.4zm-9.78.74c0 .24-.62.76-.87.81s-.9-.59-.91-.82l-.06-3.4-24.62-.02-.17 2.98c-.02.4-.36 1.04-.59 1.33-.15.19-1.18-.33-1.19-.58l-.08-3.73-4.79-.02c-1.45 0-3.01 1.38-3.01 2.88v5.54h44.29v-6.01c0-1.5-2.54-2.52-3.81-2.47l-4.05.16zm4.79 37.83c2.41-.14 3.27-1.7 3.27-3.66l-.03-27.47-44.3-.02v27.99c0 1.91 1.72 3.17 3.58 3.14h37.48z" class="cls-222"/><path fill="#29a6a4" d="M38.695 32.765c-2.73.77-5.31.28-5.42-1.35-.03-.42.75-1.39 1.18-1.39l3.6-.04c.37 0 1.07.62 1.3.9s-.32 1.79-.66 1.88M25.525 32.905c-1.83.55-4.26.54-4.56-1.47-.15-1.03 2.4-1.9 3.65-1.62.73.16 1.72.72 1.99 1.17s-.46 1.74-1.09 1.93zM38.765 21.975c.32.62.41 2.25-.14 2.36l-2.65.5c-.43.08-1.71-.36-2.07-.59-.45-.29-.44-1.47-.23-2.11 1.35-.75 3.42-.84 5.09-.16M26.215 38.815c.33.27.57 1.79.21 1.99-.47.27-1.72.7-2.26.64l-2.38-.27c-.47-.05-.72-1.13-.71-1.75.86-1.57 4.02-1.52 5.14-.61M38.465 38.785c.43.26.31 2.16-.18 2.24l-2.32.35c-.42.06-1.69-.34-2.08-.55-.48-.26-.4-1.41-.07-2.12 1.04-.62 3.45-.67 4.65.08M13.735 38.765c.5.3.33 2.34-.19 2.39l-2.45.24c-.47.05-1.61-.43-2-.72s-.09-1.82.32-2.09c.83-.54 3.21-.49 4.33.18zM13.735 22.105c.34.25.49 1.97.13 2.11-.47.18-1.61.55-2.11.49l-2.29-.31c-.48-.06-.65-1.7-.33-2.09.74-.9 3.55-.99 4.61-.2z" class="cls-305"/></svg>