<svg xmlns="http://www.w3.org/2000/svg" width="34" height="50"><path fill="#14274d" d="M32.78 37.944c-2.87 8.73-11.51 13.43-20.31 11.01-10.25-2.82-14.94-14.01-10.8-23.86 3.72-8.83 8.63-16.8 15.26-24.68 6.07 7.41 10.85 15.09 14.93 23.31 2.21 4.46 2.63 9.45.91 14.22zm-1.13-1.56c1.16-4.92.17-9.49-2.11-13.75-3.7-6.94-7.81-13.37-12.63-19.83-4.92 6.57-9.03 12.8-12.4 19.78-1.93 3.99-3.2 8.07-2.5 12.42 1.2 7.28 7.06 12.46 14.14 12.92s13.54-4.33 15.49-11.54z" class="cls-222"/><path fill="#29a6a4" d="m11.85 28.864-2.3 6.2-5.15-.86c1.53-.97 2.84-.94 4.32-.91l3.24-8.7 2.63 9.39-1.01 2.15-1.74-7.26zM20.5 44.604c-.36.05-1.12-1.05-.85-1.17l1.32-.57c1.96-.84 3.57-2.43 5.09-4.05l.77-.82c.17-.18.86.84.76 1.09-.88 2.05-4.22 5.12-7.08 5.52zM17.78 34.634l-1.32 2.48c-.97-2.19.14-3.93 1.88-5.12l1.58 2.8-2.14-.15z" class="cls-305"/></svg>