<svg xmlns="http://www.w3.org/2000/svg" width="61" height="56"><g fill="#14274d"><path d="m50.559 34.622 2.5.34-.57-1.71c-.13-.4-1.78-.62-2.26-.35l-8.61 4.83c.12.46.88 1.28 1.25 1.23l7.68-4.34z" class="cls-222"/><path d="M17.889 50.522c-2.08-.61-4.62-.81-6.48.14l-5.69 2.94c-.29.15.33 1.57.63 1.44l1.33-.61c2.91-1.33 5.71-3.3 9.02-2.4l12.11 3.28c3.52.95 6.64-.37 9.59-2.09l20.37-11.92c1.97-1.15 2.31-3.69 1.22-5.33-.88-1.33-3.26-2.28-5.09-1.26l-10.87 6.01c-.29.22-.62.88-.51 1.19s1.14.41 1.46.23l10.91-6.03c.75-.42 2.42.14 2.79.75s.13 2.41-.6 2.84l-20.03 11.81c-3.56 2.1-6.97 2.89-11.08 1.68z" class="cls-222"/><path d="m37.159 45.102-14.28-.06-.64.9c-.14.19.46.68.67.8l14.62-.02c1.98-.72 3.1-2.26 2.75-4.28-.25-1.43-1.72-3.36-3.55-3.4l-8.46-.17c-4.03-.08-10.39-6.82-20.47-1.62l-6.68 3.44c-.39.2-.71.92-.72 1.27-.01.26 1.15.43 1.46.28l7.77-3.95c7.32-3.73 13.34 1.43 17.32 2.14 5.72 1.01 11.59-1.24 11.81 2.51.04.72-.73 1.69-1.59 2.17zM51.249 12.952c-1.23 8.37-12.74 15.68-19.94 21.81-5.81-5.03-11.15-9.84-16.26-15.18-3.94-4.12-4.27-10.29-1.12-14.7 2.23-2.89 5.33-4.51 8.78-4.48s6.46 1.69 8.7 4.66c3.17-4.28 8.42-5.81 13.14-3.85 4.52 1.87 7.31 6.5 6.69 11.75zm-7.24 8.86c2.26-1.91 3.72-4.36 4.97-6.77 1.73-4.99-.37-10.35-5.06-12.19s-9.81.19-12.53 5.34c-2.17-3.61-4.8-5.82-8.27-6.02s-6.87 1.73-8.55 5.08c-2.1 4.17-.68 9.08 2.72 12.25l14.03 13.07 12.68-10.77z" class="cls-222"/><path d="M40.829 17.402c2.17-1.65 3.65-3.64 3.54-6.17-.05-1.26-1.02-2.87-1.84-3.51-2.4-1.87-5.3-.02-5.22.09l-.69-.89c-.5-.64 3.76-3.16 7.11-.38 1.51 1.26 2.7 3.55 2.32 5.92-.4 2.44-2.08 4.25-3.84 6.02-.51.26-.92.44-1.26.53s-.4-1.39-.11-1.61z" class="cls-222"/></g></svg>