<svg xmlns="http://www.w3.org/2000/svg" width="41" height="52"><path fill="#14274d" d="m11.147 24.221 10.02-18 8.39 4.68-1.36 2.53c-2.01-.08-3.61 1.04-4.16 2.59-.64 1.78.11 3.84 1.58 4.85 2.36 1.61 5.16.9 6.26-1.48s.06-4.78-2.39-5.63l1.81-3.13-1.79-1.47 1.93-3.23c.7-1.18.36-2.28-.77-2.95l-4.35-2.56c-.59-.35-1.82.04-2.16.65l-2.11 3.82c-1.07-.32-1.8.05-2.26.88l-9.5 16.98c-.61 1.09-.55 1.92-.1 2.94-.6 1.46-1.31 3.78.57 4.82l2.98 1.65c.51.28 2.18.27 2.54-.18l1.44-1.79 2.25.23 4.34-7.68-.6-1.75-4.52 7.9-8.02-4.64z" class="cls-222"/><path fill="#14274d" d="m15.087 39.141-5.14-3.06c-3.6-.27-9.04-.62-8.89.64.03.27.35.93.57 1.08l4.98 3.48 5.8 3.83-8.71.15c-1.42.03-2.77 1.36-3.1 2.41-.44 1.43-.15 3.11 1.28 4.04h37.13c1.54-.65 1.85-2.81 1.39-4.06-.34-.93-1.56-2.34-2.87-2.38l-6.83-.18c6.11-3.23 9.81-9.22 9.5-16.14-.17-3.77-1.6-7.17-4.13-9.96l-.93.86c-.19.17.4.83.59 1.01 3.96 4.91 4.11 11.67.76 16.97-4.56 8-16.6 10.39-23.77 5.66l-9.23-6.09c1.97-.09 4.1-.15 5.93.04 2.14 1.23 4.06 2.48 6.24 3.48 6.95 3.2 15.85.63 18.76-6.6 1.58-3.94 1.18-8.02-1.15-11.44-.27-.02-1.08.6-.95.89l.48 1.09c2.39 4.38 1.26 9.55-2.52 12.94-4.09 3.66-10.29 4.23-15.17 1.32z" class="cls-222"/><path fill="#14274d" d="m36.767 46.641-13.13-.04-19.94.11c-.73 0-1.59.99-1.83 1.55-.21.5.2 2.12.74 2.12h35.93c.64-.66.76-1.97.36-2.69-.28-.51-1.27-1.05-2.13-1.05M26.257 19.041c.57 1.29 2.19 1.72 3.31.99.77-.5 1.63-1.78 1.36-2.82s-1.4-2.09-2.59-2.24c-1.07-.14-2.15.26-2.77 1-.5.6-.5 1.76.1 2.43.73-1.14.86-1.71 2.07-2.15-.18 1.18-.85 2-1.47 2.79z" class="cls-222"/><path fill="#f5f6f5" d="m30.437 4.581-4.98-2.99-2.3 4.11 5.13 2.83z" class="cls-193"/><path fill="#f6f5f5" d="m16.777 29.141-4.99-2.86c-.56.39-1.09 1.71-.77 2.2.92 1.41 3.09 2.53 4.14 2.34.54-.1 1.12-.97 1.62-1.69z" class="cls-304"/><path fill="#f5f6f5" d="M36.767 46.641c.87 0 1.85.55 2.13 1.05.4.72.28 2.02-.36 2.68H2.607c-.54 0-.95-1.62-.74-2.12.24-.56 1.1-1.55 1.83-1.55l19.94-.11 13.13.04zM26.257 19.041c.62-.79 1.3-1.61 1.47-2.79-1.21.44-1.34 1.01-2.07 2.15-.6-.67-.6-1.83-.1-2.43.63-.75 1.7-1.14 2.77-1 1.19.15 2.33 1.2 2.59 2.24s-.59 2.33-1.36 2.82c-1.12.72-2.74.3-3.31-.99z" class="cls-193"/></svg>