<svg xmlns="http://www.w3.org/2000/svg" width="60" height="48"><defs><clipPath id="a"><path d="m122.56 717.72-7.63.06c-3.59.03-6.91 3.13-7.53 6.52 1.65.6 3.48 1.73 3.47 3.68l-.04 16.17c-2.46-.45-5.42-3.53-5.42-5.44l.04-13.05c.02-5.31 4.71-9.69 9.92-9.66l8.01.05c5.42.04 9.34 4.79 9.35 10.06l.02 11.63c0 3.08-2.48 5.78-5.62 6.37l-.1-15.3c-.01-2.34 1.65-3.92 3.88-4.47-.88-3.85-4.33-6.64-8.35-6.61zm6.2 23.73c1.61-.96 2.09-1.95 2.44-3.2l-.12-12.6-2.3 1.9-.03 13.91zm-19.68-.21.08-13.8c-.5-.51-1.08-.97-2.01-1.56l-.07 12.75c0 .82 1.29 2.19 1.99 2.61z" class="cls-222"/></clipPath></defs><path fill="#14274d" d="M2.57 31.45c.875-4.749 5.704-5.936 9.829-6.056l1.55-.04c.291 0 .311-.946.27-1.51-2.031-.211-4.587-.241-6.539.292C3.224 25.353.517 28.935.537 33.492l.03 7.566c0 .423.504 1.298.856 1.328 1.69.13.251-6.066 1.147-10.926zM59.463 40.957l-.06-7.937c-.03-3.964-2.375-7.304-6.138-8.592-2.384-.815-5.16-.926-7.585-.483.05 1.237.986 1.6 2.213 1.469 4.034-.443 8.934 1.61 9.558 5.986.473 3.34.18 7.123.281 10.513l1.258.322c.221.06.473-1.016.473-1.288z" class="cls-222"/><path fill="#29a6a4" d="M7.389 40.344c1.207-3.42 1.126-6.64-.956-6.037v13.27c.593.091 1.65-.01 1.66-.352l.03-1.68c.03-1.82-.322-3.702-.724-5.211zM51.143 45.555l.03 1.68c0 .342 1.066.433 1.66.352v-13.27c-2.093-.603-2.173 2.616-.966 6.037-.402 1.509-.755 3.39-.724 5.211z" class="cls-305"/><path fill="#14274d" d="m33.526 21.41-7.676.06c-3.612.03-6.952 3.149-7.576 6.56 1.66.603 3.501 1.74 3.491 3.702L21.725 48c-2.475-.453-5.453-3.551-5.453-5.473l.04-13.13c.02-5.341 4.74-9.748 9.98-9.718l8.06.05c5.452.04 9.396 4.82 9.406 10.121l.02 11.701c0 3.099-2.495 5.815-5.654 6.409l-.1-15.393c-.01-2.354 1.66-3.944 3.903-4.497-.885-3.874-4.356-6.68-8.4-6.65zm6.238 23.874c1.62-.966 2.103-1.962 2.455-3.22l-.121-12.676-2.314 1.911-.03 13.995zm-19.8-.212.081-13.883c-.503-.514-1.087-.976-2.022-1.57l-.07 12.827c0 .825 1.297 2.204 2.001 2.626z" class="cls-222"/><g class="cls-190" clip-path="url(#a)" transform="translate(-89.778 -700.667)scale(1.00607)"><path fill="#14274d" d="M122.56 717.72c4.02-.03 7.47 2.76 8.35 6.61-2.22.54-3.89 2.13-3.88 4.47l.1 15.3c3.15-.59 5.63-3.29 5.62-6.37l-.02-11.63c-.01-5.27-3.93-10.02-9.35-10.06l-8.01-.05c-5.21-.03-9.91 4.35-9.92 9.66l-.04 13.05c0 1.91 2.95 4.99 5.42 5.44l.04-16.17c0-1.94-1.82-3.08-3.47-3.68.62-3.39 3.94-6.49 7.53-6.52l7.63-.06z" class="cls-222"/></g><path fill="#14274d" d="M26.172 15.876c-4.739-2.505-5.674-8.642-2.777-12.505 3.059-4.085 9.125-4.598 12.707-.765 2.797 2.988 2.897 7.445.714 10.614s-6.68 4.749-10.634 2.656zm1.388-1.338c2.908 1.217 5.916.13 7.616-2.042 1.7-2.173 1.962-4.95.564-7.435-1.177-2.073-3.793-3.672-6.5-3.23-3.108.503-5.211 2.828-5.613 5.463-.473 3.039.855 5.956 3.933 7.244M8.033 19.367c-3.34-1.76-3.995-6.086-1.952-8.803 2.153-2.877 6.418-3.24 8.944-.543 1.962 2.103 2.042 5.241.503 7.475-1.54 2.233-4.699 3.34-7.485 1.871zm.975-.935c2.053.855 4.166.09 5.363-1.44 1.197-1.528 1.388-3.49.392-5.23-.825-1.46-2.676-2.586-4.577-2.274-2.184.352-3.673 1.992-3.954 3.843-.332 2.133.603 4.195 2.776 5.1M47.43 19.367c-3.34-1.76-3.994-6.086-1.952-8.803 2.153-2.877 6.42-3.24 8.944-.543 1.962 2.103 2.043 5.241.503 7.475-1.539 2.233-4.698 3.34-7.485 1.871zm.976-.935c2.052.855 4.165.09 5.362-1.44 1.198-1.528 1.389-3.49.393-5.23-.825-1.46-2.676-2.586-4.578-2.274-2.183.352-3.672 1.992-3.954 3.843-.332 2.133.604 4.195 2.777 5.1" class="cls-222"/></svg>