<svg xmlns="http://www.w3.org/2000/svg" width="54" height="40"><g fill="#14274d"><path d="m37.8 33.072-.62 6.38c.63.13 2.15-1.12 2.14-1.88l-.06-8.43c-.01-1.81-1.07-3.98-2.09-5.52 3.15-2.11 7.65-2.32 11.11-.52 2.35 1.23 3.59 3.48 3.57 6.15l-.07 7c0 .29.69 1.32.91 1.15s.86-.91.85-1.16l-.04-7.48c-.02-3.4-1.98-6.2-4.97-7.43-4.09-1.69-8.53-1.34-12.4.82-5.17-5.04-13.16-4.76-17.87.28-2.57-1.74-5.3-2.27-8.43-2.15-4.76.19-9.17 3.34-9.25 8.48l-.12 7.51c0 .26.75 1.23.95 1.05s.79-.84.79-1.08l.12-7.98c.04-2.44 2.13-4.6 4.14-5.45 3.56-1.51 7.39-1.15 10.75.83-2.54 4.21-2.84 13.49-1 15.42.18.19 1.38.48 1.45.24l.24-.81c.05-.16-.81-.72-.82-.89l-.31-5.23c-.41-6.98 4.06-12.41 10.76-12.22 6.75.19 10.96 5.81 10.28 12.89zM25.56 15.932c-4.13-.92-6.11-4.78-5.8-8.39S22.84.782 26.8.552c4.78-.28 8.19 3.63 8.04 7.93-.16 4.62-4.2 8.59-9.27 7.45zm1.02-1.57c3.79.48 6.45-2.66 6.61-5.93.14-2.97-2.05-5.92-5.43-6.2s-6.04 2.25-6.38 5.36 1.49 6.29 5.21 6.77zM9.72 18.552c-3.33-.74-4.93-3.86-4.69-6.77s2.49-5.46 5.68-5.65c3.86-.22 6.62 2.94 6.49 6.4-.13 3.73-3.39 6.93-7.49 6.02zm.82-1.27c3.06.39 5.21-2.15 5.34-4.79.11-2.4-1.66-4.78-4.39-5.01s-4.88 1.82-5.16 4.33 1.2 5.08 4.21 5.46zM41.8 18.552c-3.33-.74-4.93-3.86-4.69-6.77s2.49-5.46 5.68-5.65c3.86-.22 6.62 2.94 6.49 6.4-.13 3.73-3.39 6.93-7.49 6.02zm.83-1.27c3.06.39 5.21-2.15 5.34-4.79.11-2.4-1.66-4.78-4.39-5.01s-4.88 1.82-5.16 4.33 1.2 5.08 4.21 5.46z" class="cls-222"/></g></svg>