<svg xmlns="http://www.w3.org/2000/svg" width="95" height="32" viewBox="0 0 95 32" fill="none"><path fill="#77858d" d="M78.803 23.72V8.86h4.138v14.86zM68.56 24q-1.429 0-2.546-.493a4.1 4.1 0 0 1-1.767-1.48q-.642-.987-.641-2.458 0-1.237.456-2.08a3.7 3.7 0 0 1 1.243-1.354q.787-.513 1.787-.774 1.011-.261 2.118-.368 1.302-.135 2.098-.251.796-.125 1.156-.368.36-.241.359-.716V13.6q0-.918-.583-1.422-.573-.503-1.631-.503-1.118 0-1.778.494a2.27 2.27 0 0 0-.874 1.219l-3.827-.31a5.2 5.2 0 0 1 1.146-2.341q.855-.996 2.205-1.529 1.36-.54 3.147-.541 1.243 0 2.38.29 1.145.29 2.03.9a4.4 4.4 0 0 1 1.408 1.567q.515.948.515 2.273V23.72h-3.924v-2.061h-.117q-.36.696-.962 1.229a4.5 4.5 0 0 1-1.447.822q-.845.29-1.952.29m1.184-2.844q.913 0 1.612-.358a2.85 2.85 0 0 0 1.098-.987q.398-.619.398-1.403v-1.576q-.195.124-.534.232-.33.096-.748.183-.418.078-.835.146-.418.058-.758.106-.729.107-1.272.339-.544.232-.845.628-.301.386-.301.968 0 .841.612 1.287.62.435 1.573.435M58.22 23.72V8.86h4.138v14.86zM47.976 24q-1.427 0-2.544-.493a4.1 4.1 0 0 1-1.768-1.48q-.641-.987-.641-2.458 0-1.237.456-2.08a3.7 3.7 0 0 1 1.244-1.354q.786-.513 1.787-.774a14 14 0 0 1 2.117-.368q1.302-.135 2.098-.251.796-.125 1.156-.368.36-.241.36-.716V13.6q0-.918-.584-1.422-.572-.503-1.631-.503-1.117 0-1.778.494a2.27 2.27 0 0 0-.874 1.219l-3.827-.31a5.2 5.2 0 0 1 1.147-2.341q.855-.996 2.204-1.529 1.36-.54 3.147-.541 1.243 0 2.38.29 1.145.29 2.03.9a4.4 4.4 0 0 1 1.408 1.567q.515.948.515 2.273V23.72h-3.924v-2.061h-.117q-.36.696-.961 1.229a4.5 4.5 0 0 1-1.447.822q-.846.29-1.953.29m1.185-2.844q.913 0 1.613-.358a2.85 2.85 0 0 0 1.097-.987q.398-.619.398-1.403v-1.576q-.194.124-.534.232-.33.096-.748.183a38 38 0 0 1-.835.146l-.758.106q-.728.107-1.272.339t-.845.628q-.3.386-.301.968 0 .841.612 1.287.621.435 1.573.435M37.638 23.72V8.86h4.137v14.86zM27.394 24q-1.428 0-2.545-.493a4.1 4.1 0 0 1-1.768-1.48q-.64-.987-.64-2.458 0-1.237.456-2.08a3.7 3.7 0 0 1 1.243-1.354q.786-.513 1.787-.774a14 14 0 0 1 2.117-.368q1.302-.135 2.098-.251.796-.125 1.156-.368.36-.241.36-.716V13.6q0-.918-.583-1.422-.573-.503-1.632-.503-1.117 0-1.777.494a2.27 2.27 0 0 0-.875 1.219l-3.826-.31a5.2 5.2 0 0 1 1.146-2.341q.855-.996 2.204-1.529 1.36-.54 3.147-.541 1.244 0 2.38.29 1.145.29 2.03.9a4.4 4.4 0 0 1 1.408 1.567q.515.948.515 2.273V23.72h-3.924v-2.061h-.116q-.36.696-.962 1.229a4.5 4.5 0 0 1-1.447.822q-.845.29-1.952.29m1.185-2.844q.913 0 1.612-.358a2.85 2.85 0 0 0 1.097-.987q.399-.619.399-1.403v-1.576q-.195.124-.535.232-.33.096-.748.183-.417.078-.835.146l-.757.106q-.729.107-1.273.339t-.845.628q-.3.386-.3.968 0 .841.611 1.287.622.435 1.573.435M17.055 23.72V8.86h4.137v14.86zM6.81 24q-1.426 0-2.544-.493a4.1 4.1 0 0 1-1.768-1.48q-.64-.987-.64-2.458 0-1.237.456-2.08a3.7 3.7 0 0 1 1.243-1.354q.787-.513 1.787-.774a13.7 13.7 0 0 1 2.118-.368q1.301-.135 2.098-.251.796-.125 1.155-.368.36-.241.36-.716V13.6q0-.918-.583-1.422-.573-.503-1.632-.503-1.117 0-1.777.494a2.27 2.27 0 0 0-.874 1.219l-3.827-.31a5.2 5.2 0 0 1 1.146-2.341q.855-.996 2.205-1.529 1.359-.54 3.147-.541a9.6 9.6 0 0 1 2.38.29q1.145.29 2.03.9a4.4 4.4 0 0 1 1.408 1.567q.514.948.514 2.273V23.72H11.29v-2.061h-.117q-.36.696-.962 1.229a4.5 4.5 0 0 1-1.447.822q-.845.29-1.952.29m1.186-2.844q.913 0 1.612-.358a2.85 2.85 0 0 0 1.098-.987q.398-.619.398-1.403v-1.576a2.2 2.2 0 0 1-.534.232q-.33.096-.748.183a38 38 0 0 1-.835.146q-.418.058-.758.106-.729.107-1.272.339-.545.232-.845.628-.301.386-.301.968 0 .841.611 1.287.623.435 1.574.435M92.316 12.5l-1.622-3.833h.734l1.094 2.718 1.088-2.718h.734L92.727 12.5zm-1.802 0V8.667h.755V12.5zm3.255 0V8.667h.755V12.5zm-5.817 0V9h.755v3.5zm-1.15-3.177v-.656h3.055v.656z"/></svg>
