<svg xmlns="http://www.w3.org/2000/svg" width="130" height="32" viewBox="0 0 130 32" fill="none"><path fill="#77858d" d="M4.392 23.736V6.616h10.74v2.367H7.158v5.377h7.207v2.344H7.157v7.032zM21.156 24c-3.66 0-6.036-2.654-6.036-6.618 0-3.999 2.375-6.653 6.036-6.653s6.047 2.654 6.047 6.653c0 3.964-2.386 6.618-6.047 6.618m0-2.23c2.249 0 3.328-1.987 3.328-4.388 0-2.425-1.079-4.424-3.328-4.424-2.238 0-3.316 1.988-3.316 4.424 0 2.401 1.078 4.389 3.316 4.389M28.407 23.736V10.89h2.582v2.091h.138c.47-1.425 1.744-2.275 3.224-2.275.322 0 .803.035 1.079.08v2.517c-.207-.058-.815-.138-1.354-.138-1.733 0-2.995 1.183-2.995 2.85v7.72zM41.143 24c-3.81 0-6.15-2.597-6.15-6.595 0-3.953 2.329-6.676 5.944-6.676 2.995 0 5.783 1.873 5.783 6.469v.908h-9.054c.092 2.424 1.48 3.722 3.512 3.722 1.377 0 2.41-.609 2.846-1.77l2.49.564C45.906 22.644 43.932 24 41.144 24m-3.465-7.836h6.403c-.184-1.954-1.25-3.263-3.133-3.263-1.95 0-3.121 1.459-3.27 3.263M47.89 23.736V10.89h2.581v2.091h.138c.47-1.425 1.744-2.275 3.225-2.275.321 0 .803.035 1.078.08v2.517c-.206-.058-.814-.138-1.354-.138-1.732 0-2.995 1.183-2.995 2.85v7.72zM59.914 23.897c-2.616 0-4.372-1.701-4.372-4.85V10.89h2.674v7.802c0 1.803 1.01 2.895 2.65 2.895 1.665 0 2.893-1.137 2.893-3.114V10.89h2.685v12.846h-2.56l-.022-2.517c-.78 1.85-2.146 2.678-3.948 2.678M70.918 16.152v7.584h-2.674V10.89h2.548l.023 2.493c.78-1.815 2.123-2.654 3.947-2.654 2.628 0 4.372 1.7 4.372 4.849v8.158h-2.673v-7.802c0-1.804-.999-2.895-2.64-2.895-1.675 0-2.903 1.137-2.903 3.113M83.62 16.152v7.584h-2.674V10.89h2.548l.023 2.493c.78-1.815 2.123-2.654 3.947-2.654 2.628 0 4.372 1.7 4.372 4.849v8.158h-2.673v-7.802c0-1.804-.999-2.895-2.64-2.895-1.675 0-2.903 1.137-2.903 3.113M99.214 24c-3.81 0-6.151-2.597-6.151-6.595 0-3.953 2.33-6.676 5.944-6.676 2.995 0 5.784 1.873 5.784 6.469v.908h-9.054c.092 2.424 1.48 3.722 3.511 3.722 1.377 0 2.41-.609 2.846-1.77l2.49.564c-.608 2.022-2.582 3.378-5.37 3.378m-3.466-7.836h6.403c-.183-1.954-1.25-3.263-3.132-3.263-1.951 0-3.122 1.459-3.27 3.263M105.96 23.736V10.89h2.582v2.091h.138c.47-1.425 1.744-2.275 3.224-2.275.322 0 .803.035 1.079.08v2.517c-.207-.058-.815-.138-1.354-.138-1.733 0-2.995 1.183-2.995 2.85v7.72zM122.157 10.26l-1.322-3.125v3.125h-1.019V5.333h1.23l1.387 3.457 1.386-3.457h1.239v4.927h-1.037V7.163l-1.304 3.097zm-5.728 0V6.216h-1.487v-.883h4.011v.883h-1.487v4.044z"/></svg>
