<svg xmlns="http://www.w3.org/2000/svg" width="108" height="32" viewBox="0 0 108 32" fill="none"><path fill="#77858d" d="M35.665 11.11c0 4.175 8.832 2.927 8.832 8.663 0 2.664-2.016 4.944-5.832 4.944-2.184 0-4.176-.744-5.544-1.848l-.312-3.456h.888c.312.744.552 1.368.84 1.776.624 1.08 1.896 2.208 4.08 2.208 2.232 0 3.504-1.296 3.504-2.976 0-4.464-8.832-2.856-8.832-8.664 0-2.496 1.968-4.584 5.592-4.584 1.392 0 2.952.384 4.344.936l.312 3.312h-.912c-.192-.504-.48-1.104-.648-1.368-.672-1.128-1.896-1.56-3.024-1.56-2.112 0-3.288 1.2-3.288 2.616M51.307 23.565c2.111 0 3.48-2.04 3.48-5.256s-1.368-5.232-3.48-5.232-3.48 2.016-3.48 5.232 1.367 5.256 3.48 5.256m-6-5.256c0-3.744 2.471-6.36 6-6.36 3.527 0 5.975 2.616 5.975 6.36s-2.447 6.384-5.975 6.384c-3.529 0-6-2.64-6-6.384M62.347 28.27c0 .887.528 1.391 1.416 1.391h.864v.912H58.22v-.912h.768c.72 0 1.128-.504 1.128-1.392V15.621c0-1.608-.24-1.728-2.064-1.584v-.912c1.896-.192 2.544-.408 3.288-.936h1.008v1.968c1.032-1.392 2.448-2.208 4.08-2.208 2.856 0 4.632 2.28 4.632 6.36 0 3.912-1.92 6.384-5.016 6.384-1.56 0-2.832-.624-3.696-1.752zm0-7.177c.504 1.44 1.512 2.208 2.856 2.208 1.992 0 3.36-1.632 3.36-4.8 0-3.312-1.176-5.016-2.88-5.016-1.344 0-2.496.792-3.336 2.256zM76.06 22.03c0 .887.407 1.391 1.127 1.391h.72v.912h-5.976v-.912h.768c.72 0 1.128-.504 1.128-1.392V9.357c0-1.608-.24-1.728-2.064-1.584v-.912c1.896-.192 2.544-.408 3.288-.936h1.008v8.256c1.536-1.56 3.12-2.232 4.464-2.232 2.016 0 3.24 1.2 3.24 3.48v6.6c0 .888.408 1.392 1.128 1.392h.768v.912h-5.976v-.912h.72c.72 0 1.128-.504 1.128-1.392v-6.264c0-1.44-.696-2.208-1.968-2.208-1.008 0-2.304.624-3.504 1.896zM90.076 22.03c0 .887.408 1.391 1.128 1.391h.768v.912h-6.024v-.912h.768c.72 0 1.128-.504 1.128-1.392v-6.408c0-1.608-.24-1.728-2.064-1.584v-.912c1.896-.192 2.544-.408 3.288-.936h1.008zM87.436 8.54v-.168c0-.84.48-1.32 1.32-1.32h.168c.864 0 1.344.48 1.344 1.32v.168c0 .84-.48 1.32-1.344 1.32h-.168c-.84 0-1.32-.48-1.32-1.32M98.028 11.95c2.64 0 4.416 1.271 4.416 3.72v6.623c0 .744.288 1.152.792 1.152.312 0 .6-.048 1.104-.264l.216.888c-1.368.528-1.872.6-2.496.6-1.272 0-1.848-.792-1.848-1.992v-.024c-.984 1.272-2.328 2.04-3.936 2.04-2.136 0-3.504-1.248-3.504-3.48 0-2.952 3.504-4.416 7.44-4.44v-1.008c0-1.8-.912-2.736-2.4-2.736-1.824 0-2.784 1.032-3.552 2.664h-.84l.24-2.76c1.392-.648 2.976-.984 4.368-.984m-2.784 9.047c0 1.344.768 2.16 1.896 2.16 1.248 0 2.328-.792 3.072-2.136V17.83c-3.024.024-4.968.912-4.968 3.168M12.767 28.018h-1.5l.75-.018zm0-24.036v.025l.001.062v.23l-.001.094a24.481 24.481 0 0 0 .25 3.21c.297 2.014.911 4.156 2.076 5.32 1.165 1.166 3.307 1.78 5.32 2.076a24.5 24.5 0 0 0 3.21.25h.325l.062.001h.024l-.017.75.017.75h-.024l-.062.001h-.23l-.095-.001a24.511 24.511 0 0 0-3.21.25c-2.013.297-4.155.911-5.32 2.076s-1.779 3.307-2.075 5.32a24.5 24.5 0 0 0-.251 3.21l.001.095v.23l-.001.063v.024l-.75-.018-.75.018v-.024l-.001-.063v-.325a24.54 24.54 0 0 0-.25-3.21c-.296-2.013-.91-4.155-2.075-5.32s-3.307-1.779-5.32-2.075a24.5 24.5 0 0 0-3.21-.251l-.095.001h-.23l-.063-.001H0L.017 16 0 15.25h.023l.063-.001H.41A24.512 24.512 0 0 0 3.62 15c2.014-.296 4.156-.91 5.32-2.075 1.166-1.165 1.78-3.307 2.076-5.32a25 25 0 0 0 .25-3.21v-.411zm-.75 6.157c-.4 1.432-1.025 2.856-2.015 3.846S7.588 15.6 6.156 16c1.432.4 2.856 1.025 3.846 2.015s1.614 2.414 2.015 3.846c.4-1.432 1.025-2.856 2.015-3.846s2.414-1.614 3.846-2.015c-1.432-.4-2.856-1.025-3.846-2.015s-1.614-2.414-2.015-3.846M.017 16 0 16.75v-1.5zm24.017.75-.017-.75.017-.75z"/></svg>
