<svg xmlns="http://www.w3.org/2000/svg" width="108" height="32" viewBox="0 0 108 32" fill="none"><path fill="#77858d" d="M2.696 13.147H.908v-1.38l1.788-.253.573-3.012h1.49v3.012h2.52v1.656H4.76v6.645q0 .367.068.69.069.321.23.574.183.253.504.414.32.138.802.138.252 0 .573-.023.343-.045.802-.161v1.748q-.39.091-.825.114-.413.046-.78.046-.916 0-1.58-.276-.643-.299-1.055-.781a3.3 3.3 0 0 1-.619-1.104 4.8 4.8 0 0 1-.183-1.31zM8.323 17.308q0-1.31.412-2.414a5.6 5.6 0 0 1 1.146-1.885 5 5 0 0 1 1.742-1.242 5.45 5.45 0 0 1 2.246-.46q1.238 0 2.246.46a5 5 0 0 1 1.765 1.242q.733.781 1.123 1.885.412 1.104.412 2.414v.506h-8.984q.115 1.725 1.032 2.713.939.99 2.406.989 1.17 0 1.994-.575.825-.597 1.192-1.678l1.97.414q-.48 1.655-1.856 2.644-1.351.988-3.3.988a5.7 5.7 0 0 1-2.246-.436 5.5 5.5 0 0 1-1.742-1.242 5.8 5.8 0 0 1-1.146-1.908 6.8 6.8 0 0 1-.412-2.415m5.546-4.207q-1.375 0-2.269.85-.894.851-1.123 2.369h6.784q-.183-1.517-1.1-2.369-.894-.85-2.292-.85M22.25 11.514q.23.851.344 1.702a6 6 0 0 1 1.375-1.357q.78-.529 1.834-.529l.206 1.817q-1.512-.023-2.452.873-.94.897-.94 2.46v6.645h-2.062v-8.277q0-1.219-.023-1.954-.024-.735-.115-1.38zM28.429 11.514q.229.851.343 1.702a6 6 0 0 1 1.376-1.357q.778-.529 1.833-.529l.206 1.817q-1.512-.023-2.452.873-.94.897-.94 2.46v6.645h-2.062v-8.277q0-1.219-.023-1.954t-.115-1.38zM40.113 23.126a7 7 0 0 1-.207-.805 52 52 0 0 1-.114-.805 4.8 4.8 0 0 1-1.467 1.31q-.87.506-2.04.506a5.2 5.2 0 0 1-1.65-.253 4 4 0 0 1-1.283-.735 3.5 3.5 0 0 1-.825-1.127 3.5 3.5 0 0 1-.298-1.448q0-1.587 1.26-2.438 1.26-.85 3.53-1.126l2.704-.3v-.666q0-.966-.642-1.54-.618-.599-1.65-.598-.963 0-1.65.39-.687.392-.94 1.196l-2.017-.299q.39-1.425 1.628-2.253t3.002-.828q.986 0 1.788.322.802.299 1.352.874.573.552.87 1.356.322.783.322 1.748v4.208q0 1.218.023 1.93.045.714.114 1.38zm-3.53-1.541q1.444 0 2.292-.874.848-.873.848-2.276v-1.08l-2.681.321q-1.261.162-1.994.667-.735.506-.734 1.38 0 .804.619 1.333.62.53 1.65.529M43.52 14.342h15.104v1.702H43.52zM61.475 13.147h-1.788v-1.38l1.788-.253.572-3.012h1.49v3.012h2.521v1.656h-2.52v6.645q0 .367.068.69.069.321.23.574.183.253.503.414.322.138.802.138.253 0 .573-.023.345-.045.803-.161v1.748q-.39.091-.825.114-.412.046-.78.046-.916 0-1.581-.276-.642-.299-1.054-.781a3.3 3.3 0 0 1-.62-1.104 4.8 4.8 0 0 1-.182-1.31zM77.97 17.308q0 1.311-.412 2.415a5.8 5.8 0 0 1-1.146 1.908 5.4 5.4 0 0 1-1.765 1.242q-1.008.435-2.223.436a5.7 5.7 0 0 1-2.246-.436 5.5 5.5 0 0 1-1.742-1.242 5.8 5.8 0 0 1-1.146-1.908 6.8 6.8 0 0 1-.412-2.415q0-1.333.412-2.437a5.6 5.6 0 0 1 1.146-1.885 5 5 0 0 1 1.742-1.242 5.7 5.7 0 0 1 2.246-.437q1.214 0 2.223.437a5 5 0 0 1 1.765 1.242q.733.781 1.146 1.885t.412 2.437m-9.007 0q0 1.955.94 3.104t2.52 1.15 2.522-1.15q.963-1.149.963-3.104 0-1.931-.963-3.058-.94-1.15-2.521-1.15-1.582 0-2.521 1.15-.94 1.126-.94 3.058M80.94 11.514q.229.851.344 1.702a6 6 0 0 1 1.375-1.357q.78-.529 1.833-.529l.206 1.817q-1.512-.023-2.452.873-.94.897-.94 2.46v6.645h-2.062v-8.277q0-1.219-.023-1.954-.024-.735-.115-1.38z"/><path fill="#77858d" d="M84.666 11.514h2.131l3.392 9.013 3.369-9.013h2.085l-4.858 12.6q-.253.69-.573 1.38a4.7 4.7 0 0 1-.78 1.241q-.48.576-1.168.92T86.568 28q-.39 0-.848-.069a6 6 0 0 1-.871-.16V26q.55.183.917.23.366.046.664.046.573 0 .963-.23.412-.207.687-.552.3-.344.482-.782.206-.436.366-.874l.275-.713zM102.322 7.333v.61h-1.054v2.816h-.676V7.943h-1.054v-.61zm.344 3.426V7.333h.779l1.009 2.449 1.02-2.449h.768v3.426h-.677V8.563l-.905 2.196h-.412l-.906-2.184v2.184z"/></svg>
