<svg xmlns="http://www.w3.org/2000/svg" width="68" height="60" fill="none"><path fill="url(#a)" d="M12.422 45.117c5.508 5.274 12.656 9.258 21.328 9.258 8.555 0 15.703-3.984 21.21-9.258C60.117 40.078 63.633 34.219 65.39 30c-1.757-4.102-5.273-10.078-10.43-15-5.507-5.273-12.655-9.375-21.21-9.375-8.672 0-15.82 4.102-21.328 9.375-5.156 4.922-8.672 10.898-10.43 15 1.758 4.219 5.274 10.078 10.43 15.117M33.75 56.25C15.117 56.25 3.516 38.79 0 30 3.516 21.328 15.117 3.75 33.75 3.75 52.266 3.75 63.984 21.328 67.5 30c-3.516 8.79-15.234 26.25-33.75 26.25M22.5 30c0 4.102 2.11 7.734 5.625 9.844 3.398 1.992 7.734 1.992 11.25 0C42.773 37.734 45 34.102 45 30c0-3.984-2.227-7.617-5.625-9.727-3.516-1.992-7.852-1.992-11.25 0C24.609 22.383 22.5 26.016 22.5 30m24.375 0c0 4.805-2.578 9.023-6.562 11.367-4.102 2.461-9.141 2.461-13.126 0-4.101-2.344-6.562-6.562-6.562-11.367 0-4.687 2.46-8.906 6.563-11.25 3.984-2.46 9.023-2.46 13.125 0 3.984 2.344 6.562 6.563 6.562 11.25" style="fill:url(#a)"/><defs><linearGradient id="a" x1="8.194" x2="60.991" y1="-4.25" y2="51.728" gradientTransform="translate(0 3.75)" gradientUnits="userSpaceOnUse"><stop stop-color="#307884"/><stop offset="1" stop-color="#c8dee0"/></linearGradient></defs></svg>