<svg xmlns="http://www.w3.org/2000/svg" width="45" height="32" fill="none"><path fill="url(#a)" d="M5.625 1.125V22.5H4.5V0h36v22.5h-1.125V1.125zm-4.5 26.578 2.672 2.672h37.336l2.742-2.672v-1.828H1.125zm42.75-2.953H45v3.375L41.625 31.5H3.375L0 28.125V24.75h43.875M20.25 5.063h5.063v5.062h5.062v5.625h-5.062v5.063h-5.625V15.75h-5.063v-5.625h5.063V5.063zm.563 5.625v.562H15.75v3.375h5.063v5.063h3.375v-5.063h5.062V11.25h-5.062V6.188h-3.375z"/><defs><linearGradient id="a" x1="5.423" x2="59.688" y1="-2.75" y2="63.738" gradientUnits="userSpaceOnUse"><stop stop-color="#307884"/><stop offset="1" stop-color="#c8dee0"/></linearGradient></defs></svg>