<svg xmlns="http://www.w3.org/2000/svg" width="45" height="36" fill="none"><path fill="url(#a)" d="m33.75 0 .773.773-4.5 4.5-.14.141H15.609V20.04h5.625v-9.562h1.125v3.937h13.5v7.313h-2.25v5.625h-3.375v3.937H16.383l-4.36 4.36-.773-.774 4.5-4.5.14-.21H29.11v-3.938h3.375v-5.625h2.25v-5.063H22.36v5.625h-7.875V4.29h14.907zM12.234 9.914h-.07v1.125h-4.5v8.718l-.14.141-6.75 6.75L0 25.875l6.61-6.61V9.915h5.624m25.875 4.852L43.875 9l.773.773-6.539 6.61z"/><defs><linearGradient id="a" x1="5.282" x2="59.547" y1="-.711" y2="65.777" gradientUnits="userSpaceOnUse"><stop stop-color="#307884"/><stop offset="1" stop-color="#c8dee0"/></linearGradient></defs></svg>