<svg xmlns="http://www.w3.org/2000/svg" width="41" height="36" fill="none"><path fill="url(#a)" d="M25.875 1.125H1.125v6.75h24.75zM1.125 0H27v9H0V0zM2.25 29.25v-18h1.125v3.375h7.875v1.125H3.375v5.625h7.875V22.5H3.375v5.625h7.875v1.125H3.375v5.625h18.492c.422.422.844.844 1.336 1.125H2.25v-6.75m22.5-18v3.656c-.422.14-.773.422-1.125.633V11.25zm5.625 5.625c-3.234 0-6.187 1.758-7.805 4.5-1.617 2.813-1.617 6.258 0 9 1.617 2.813 4.57 4.5 7.805 4.5a8.92 8.92 0 0 0 7.734-4.5c1.618-2.742 1.618-6.187 0-9-1.617-2.742-4.57-4.5-7.734-4.5m0 19.125c-3.656 0-6.96-1.898-8.79-5.062-1.827-3.094-1.827-6.961 0-10.125 1.83-3.094 5.134-5.063 8.79-5.063 3.586 0 6.89 1.969 8.719 5.063 1.828 3.164 1.828 7.03 0 10.125C37.266 34.102 33.96 36 30.375 36m-3.937-14.836h-.07l.421.422 7.875 7.875.422.352-.773.843-.422-.422-7.875-7.875-.422-.422z"/><defs><linearGradient id="a" x1="4.941" x2="59.995" y1="-.5" y2="60.959" gradientUnits="userSpaceOnUse"><stop stop-color="#307884"/><stop offset="1" stop-color="#c8dee0"/></linearGradient></defs></svg>