<svg xmlns="http://www.w3.org/2000/svg" width="36" height="36" fill="none"><path fill="url(#a)" d="M0 4.5V2.25L10.125 0l5.625 10.125-5.906 4.71a26.65 26.65 0 0 0 11.32 11.321l4.711-5.906L36 25.875 33.75 36H31.5C14.063 36 0 21.938 0 4.5m1.125-1.336V4.5c0 16.805 13.57 30.375 30.375 30.375h1.336l1.828-8.367-8.508-4.781-4.148 5.132-.563.774-.843-.492A27.82 27.82 0 0 1 8.859 15.398l-.492-.843.774-.563 5.132-4.148-4.78-8.508z"/><defs><linearGradient id="a" x1="4.338" x2="67.287" y1="-.5" y2="62.391" gradientUnits="userSpaceOnUse"><stop stop-color="#307884"/><stop offset="1" stop-color="#c8dee0"/></linearGradient></defs></svg>