<svg xmlns="http://www.w3.org/2000/svg" width="27" height="36" fill="none"><path fill="url(#a)" d="M25.875 13.5c0-6.82-5.555-12.375-12.375-12.375A12.35 12.35 0 0 0 1.125 13.5c0 1.758.703 3.938 1.969 6.328 1.195 2.461 2.883 4.922 4.5 7.242a94 94 0 0 0 4.64 5.836c.493.563.914 1.055 1.266 1.407.281-.352.703-.844 1.195-1.407a94 94 0 0 0 4.64-5.836c1.618-2.32 3.306-4.78 4.5-7.242 1.267-2.39 2.04-4.57 2.04-6.328m1.125 0c0 6.75-9.914 18.492-12.797 21.656-.492.563-.703.844-.703.844s-.281-.281-.773-.844C9.844 31.992 0 20.25 0 13.5 0 6.047 6.047 0 13.5 0S27 6.047 27 13.5M13.5 7.875c1.969 0 3.797 1.125 4.852 2.813.984 1.757.984 3.937 0 5.624-1.055 1.758-2.883 2.813-4.852 2.813-2.04 0-3.867-1.055-4.922-2.812-.984-1.688-.984-3.868 0-5.625C9.633 9 11.461 7.874 13.5 7.874M18 13.5c0-1.547-.914-3.023-2.25-3.867-1.406-.774-3.164-.774-4.5 0C9.844 10.477 9 11.953 9 13.5c0 1.617.844 3.094 2.25 3.938 1.336.773 3.094.773 4.5 0 1.336-.844 2.25-2.32 2.25-3.938"/><defs><linearGradient id="a" x1="3.254" x2="63.669" y1="-.5" y2="44.77" gradientUnits="userSpaceOnUse"><stop stop-color="#307884"/><stop offset="1" stop-color="#c8dee0"/></linearGradient></defs></svg>