<svg xmlns="http://www.w3.org/2000/svg" width="47" height="48" fill="none"><path fill="url(#a)" d="M18.563 0h9v16.219L40.875 8.53l.656-.375.375.656 3.75 6.47.375.656-.656.374L32.063 24l13.312 7.781.656.375-.375.657-3.75 6.468-.375.657-.656-.376-13.312-7.687V48h-9V31.875L5.156 39.563l-.656.374-.375-.656-3.75-6.468L0 32.156l.656-.375L14.063 24 .656 16.313 0 15.938l.375-.657 3.75-6.469.375-.656.656.375 13.407 7.688V0m1.5 1.5v17.344l-1.125-.657L5.063 10.22l-3 5.156 13.875 8.063 1.124.562-1.125.656L2.063 32.72l3 5.156 13.875-7.969 1.125-.656V46.5h6V29.25l1.125.656 13.78 7.969 3-5.156-13.78-8.063L29.063 24l1.125-.562 13.78-8.063-3-5.156-13.78 7.969-1.125.656V1.5z"/><defs><linearGradient id="a" x1="4.847" x2="47.063" y1="0" y2="39.494" gradientUnits="userSpaceOnUse"><stop stop-color="#307884"/><stop offset="1" stop-color="#c8dee0"/></linearGradient></defs></svg>