<svg xmlns="http://www.w3.org/2000/svg" width="60" height="60" fill="none"><path fill="url(#a)" d="M30 0c3.047 0 6.094.469 8.906 1.406L37.383 2.93C35.039 2.227 32.46 1.875 30 1.875 14.414 1.875 1.875 14.531 1.875 30A28.06 28.06 0 0 0 30 58.125c15.469 0 28.125-12.54 28.125-28.125 0-2.46-.352-5.04-1.055-7.383l1.524-1.523C59.414 23.906 60 26.954 60 30c0 16.64-13.477 30-30 30C13.36 60 0 46.64 0 30 0 13.477 13.36 0 30 0m0 10.313c.938 0 1.875.117 2.93.234l.234 1.992A14.6 14.6 0 0 0 30 12.188c-9.844 0-17.812 8.085-17.812 17.812 0 9.844 7.968 17.813 17.812 17.813 9.727 0 17.813-7.97 17.813-17.813q0-1.583-.352-3.164l1.992.234c.117 1.055.234 1.992.234 2.93 0 10.898-8.906 19.688-19.687 19.688A19.655 19.655 0 0 1 10.313 30c0-10.781 8.789-19.687 19.687-19.687m1.64 11.484-1.757 1.64c-3.633.118-6.445 2.93-6.445 6.563h-.118l.117.117a6.427 6.427 0 0 0 6.446 6.445l.117.118v-.117c3.633 0 6.445-2.93 6.563-6.446l1.64-1.758c.117.586.234 1.172.234 1.758 0 4.57-3.867 8.438-8.437 8.438-4.687 0-8.437-3.867-8.437-8.438A8.4 8.4 0 0 1 30 21.68c.469 0 1.055 0 1.64.117m15.938-10.664-2.93-7.5-6.21 6.094 1.523 9.023 7.617-7.734zm-6.328 8.906 9.023 1.523 6.094-6.21-7.5-2.93zm-1.64 1.64-9.024 9.024-.703.703L28.593 30l.704-.586 9.023-9.023-1.758-10.782-.117-.468.352-.352 7.5-7.5.937-1.055.586 1.29 3.633 9.023 9.024 3.633 1.289.586-1.055.937-7.5 7.5-.352.352-.468-.117z"/><defs><linearGradient id="a" x1="7.23" x2="60" y1="-.5" y2="48.868" gradientUnits="userSpaceOnUse"><stop stop-color="#307884"/><stop offset="1" stop-color="#c8dee0"/></linearGradient></defs></svg>