<svg xmlns="http://www.w3.org/2000/svg" width="136" height="20" fill="none"><path fill="url(#a)" d="M20.697 0 18.02 16.175h-.058L14.365 0H9.968L6.371 16.175h-.057L3.637 0H0l3.991 19.6H8.57l3.654-17.129 3.541 17.13h4.578L24.333 0z"/><path fill="url(#b)" d="M25.668 4.84h3.141V19.6h-3.141z"/><path fill="url(#c)" d="M25.668 0h3.141v3.087h-3.141z"/><path fill="url(#d)" d="M30.729 4.84h3.083v2.655c.8-1.685 2.14-3.026 4.425-3.026 3.853 0 5.338 2.513 5.338 5.823V19.6h-3.112v-8.736c0-2.369-.857-3.712-2.912-3.712-2.056 0-3.683 1.77-3.683 5.51V19.6h-3.14z"/><path fill="#307884" d="m48.052 0 5.349.029 5.395 15.689h.028L64.107 0h5.32v19.6h-3.35V3.712h-.058L60.51 19.6h-3.512l-5.51-15.888h-.086V19.6h-3.35V0zM78.13 20c-4.395 0-7.394-3.168-7.394-7.821s3.112-7.737 7.395-7.737c5.081 0 7.022 3.968 7.05 8.05v.6H73.734c.258 2.71 1.998 4.366 4.367 4.366 1.77 0 3.255-.685 3.768-2.226h3.084C84.095 18.258 81.584 20 78.129 20zm3.968-9.193c-.2-2.226-1.485-3.911-3.996-3.911s-3.996 1.57-4.34 3.911zM98.06 7.582h.029V0h3.168v19.6H98.06v-2.626h-.029c-.513 1.314-2.169 2.997-4.768 2.997-4.082 0-6.85-3.14-6.85-7.794 0-4.653 2.768-7.708 6.821-7.708 2.627 0 4.311 1.712 4.825 3.113zm-4.169 9.848c2.997 0 4.396-2.511 4.396-5.253S96.831 7.01 93.891 7.01s-4.367 2.227-4.367 5.168 1.485 5.253 4.367 5.253M115.03 19.971c-4.483 0-7.737-3.112-7.737-7.736 0-4.625 3.254-7.766 7.737-7.766 3.682 0 6.023 2.056 6.622 4.995h-3.026c-.515-1.427-1.627-2.512-3.654-2.512-2.797 0-4.568 2.313-4.568 5.281s1.769 5.224 4.568 5.224c1.885 0 3.168-.857 3.74-2.598h3.026c-.713 3.283-3.168 5.11-6.708 5.11zM129.474 4.413c5.024 0 6.138 3.084 6.138 6.052v5.823c0 1.142.085 2.484.258 3.312h-3.226c-.058-.6-.086-1.17-.086-1.827v-.657h-.029c-.457 1.17-1.685 2.855-4.711 2.855-3.397 0-5.195-2.113-5.195-4.397 0-4.111 5.053-4.396 7.222-4.738 1.913-.315 2.684-.743 2.684-1.97 0-1.225-1.113-1.969-2.997-1.969-1.628 0-2.855.942-3.197 2.427h-2.997c.37-2.284 2.284-4.91 6.138-4.91zm-.941 13.16c2.055 0 4.053-1.285 4.053-4.824v-1.627c-.313.828-1.056 1.57-3.711 2.085-2.056.37-3.14.999-3.14 2.284s1.057 2.084 2.798 2.084zM102.959 4.84h3.141V19.6h-3.141zM102.959 0h3.141v3.087h-3.141z"/><defs><linearGradient id="a" x1="12.166" x2="12.166" y1="20.142" y2="1.228" gradientUnits="userSpaceOnUse"><stop stop-color="#77858d"/><stop offset="1" stop-color="#9fa9aa"/></linearGradient><linearGradient id="b" x1="27.238" x2="27.238" y1="20.142" y2="1.228" gradientUnits="userSpaceOnUse"><stop stop-color="#77858d"/><stop offset="1" stop-color="#9fa9aa"/></linearGradient><linearGradient id="c" x1="27.238" x2="27.238" y1="20.142" y2="1.228" gradientUnits="userSpaceOnUse"><stop stop-color="#77858d"/><stop offset="1" stop-color="#9fa9aa"/></linearGradient><linearGradient id="d" x1="37.153" x2="37.153" y1="20.142" y2="1.228" gradientUnits="userSpaceOnUse"><stop stop-color="#77858d"/><stop offset="1" stop-color="#9fa9aa"/></linearGradient></defs></svg>