<svg xmlns="http://www.w3.org/2000/svg" width="277" height="341"><defs><linearGradient id="a" x1="0" x2="1" y1="0" y2="0" gradientTransform="rotate(50.678 -290.934 480.19)scale(-44.05826 44.05826)" gradientUnits="userSpaceOnUse" spreadMethod="pad"><stop offset="0" stop-color="#44aba4"/><stop offset=".995" stop-color="#1a284a"/><stop offset="1" stop-color="#1a284a"/></linearGradient><linearGradient id="b" x1="0" x2="1" y1="0" y2="0" gradientTransform="rotate(113.325 31.368 229.994)scale(21.55592 -21.55592)" gradientUnits="userSpaceOnUse" spreadMethod="pad"><stop offset="0" stop-color="#44aba4"/><stop offset=".995" stop-color="#1a284a"/><stop offset="1" stop-color="#1a284a"/></linearGradient><linearGradient id="c" x1="0" x2="1" y1="0" y2="0" gradientTransform="rotate(-155.128 184.119 139.2)scale(9.44069 -9.44069)" gradientUnits="userSpaceOnUse" spreadMethod="pad"><stop offset="0" stop-color="#44aba4"/><stop offset=".995" stop-color="#1a284a"/><stop offset="1" stop-color="#1a284a"/></linearGradient><linearGradient id="d" x1="0" x2="1" y1="0" y2="0" gradientTransform="matrix(-3.9912 -.68142 -.68142 3.9912 293.103 361.69)" gradientUnits="userSpaceOnUse" spreadMethod="pad"><stop offset="0" stop-color="#44aba4"/><stop offset=".995" stop-color="#1a284a"/><stop offset="1" stop-color="#1a284a"/></linearGradient><linearGradient id="e" x1="0" x2="1" y1="0" y2="0" gradientTransform="rotate(-98.443 302.05 72)scale(6.29841 -6.29841)" gradientUnits="userSpaceOnUse" spreadMethod="pad"><stop offset="0" stop-color="#44aba4"/><stop offset=".995" stop-color="#1a284a"/><stop offset="1" stop-color="#1a284a"/></linearGradient><linearGradient id="f" x1="0" x2="1" y1="0" y2="0" gradientTransform="rotate(164.613 119.919 178.06)scale(4.04894 -4.04894)" gradientUnits="userSpaceOnUse" spreadMethod="pad"><stop offset="0" stop-color="#44aba4"/><stop offset=".995" stop-color="#1a284a"/><stop offset="1" stop-color="#1a284a"/></linearGradient><linearGradient id="g" x1="0" x2="1" y1="0" y2="0" gradientTransform="rotate(132.611 68.723 211.143)scale(4.87372 -4.87372)" gradientUnits="userSpaceOnUse" spreadMethod="pad"><stop offset="0" stop-color="#44aba4"/><stop offset=".995" stop-color="#1a284a"/><stop offset="1" stop-color="#1a284a"/></linearGradient></defs><path fill="#1a2849" d="M60.35 74.1c-2.078-3.169-5.106-7.227-6.196-10.627-2.022-6.303-3.798-11.938-8.816-16.328-4.408-3.858-10.275-4.863-15.826-2.718-11.405 4.406-16.444 17.96-9.942 28.475 10.102 7.699 18.033 9.439 29.61 5.245zm-23.356 39.402c7.965-2.03 4.63-10.092 5.86-10.444l2.952-.845c3.184 6.981-.48 14.114-7.402 16.173-6.933.903-13.353 4.23-17.11 10.235-3.774 6.026-2.855 13.772.94 19.418 3.814 5.674 10.772 9.566 18.196 7.688 6.268-1.585 10.365-7.714 12.546-13.661 2.088-5.69 4.887-10.527 8.867-15.236-6.107-3.567-15.19-9.168-14.007-12.147.223-.56 2.608-.89 3.122-.509l8.469 6.292c1.653 1.23 5.068 3.136 6.664 2.375l8.964-4.272c.543.654 1.455 2.665 1.31 3.397-.52 2.673-12.277 3.405-17.92 19.545-1.451 4.15-3.278 8.198-5.94 11.603-5.123 6.559-13.193 9.49-21.386 7.204-14.688-4.095-21.63-20.847-14.313-34.479-8.7-3.664-14.32-10.82-16.2-19.944C-1.92 93.621 3.63 81.658 13.945 74.51c-4.937-12.174-1.622-24.871 8.562-32.134 5.588-3.985 12.422-4.64 18.916-3.222-.254-8.45 2.248-16.351 8.246-22.06 5.059-4.814 12.123-7.166 19.05-5.77 15.789 3.182 20.846 18.564 21.397 34.499.279 8.056 2.195 15.668 4.747 23.136-.504 1.159-3.722.899-4.344-.315-9.555-18.648-.454-38.17-16.216-49.638-7.762-5.647-18.462-3.15-23.84 4.758-3.495 5.139-5.031 11.955-3.834 17.867 6.808 5.937 11.27 13.692 12.339 22.803 3.272 4.997 7.225 9.561 12.848 11.918l6.792 5.316-3.097 4.154c-10.344-8.675-11.728-8.962-21.212-5.144l-7.29 2.933c-9.778 3.936-20.277.797-28.841-5.392-12.839 6.652-16.964 23.073-9.21 35.264a18.64 18.64 0 0 0 11.693 8.175c4.977-4.294 10.266-6.607 16.344-8.155M44.918 168.54c2.043-1.391 4.62.288 5.87 2.146 6.122 9.106 18.066 10.978 26.317 3.65 4.288-3.808 7.358-9.087 8.382-14.807l3.05-17.032c.16-.9 1.782-2.467 2.684-2.35.9.118 2.425 2.04 2.256 2.949l-3.3 17.68c-2.84 15.216-16.746 26.79-30.935 22.248-5.965-1.91-12.879-6.651-14.324-14.484"/><path fill="#1a2849" d="M96.303 132.87c-2.317 1.777-4.685-.007-4.897-2.175-1.242-12.738-4.615-24.919-11.366-35.81-.617-.994-1.334-2.777-1.05-3.624.284-.846 2.37-1.574 3.444-1.484 8.26 13.052 12.94 27.144 13.869 43.092M2.78 221.267h2.953v22.97H2.78zM14.25 244.236 8.515 226.9h2.902l4.352 14.657 4.385-14.657h2.815l-5.664 17.337ZM31.86 244.544q-2.134 0-3.763-.982-1.63-.981-2.543-2.901t-.913-4.7q0-4.507 2.2-6.792 2.203-2.288 6.349-2.288h7.663v2.201h-7.526q-2.884 0-4.377 1.69-1.494 1.69-1.493 5.189 0 1.705.444 3.165t1.432 2.346q.99.887 2.629.886 1.621 0 2.593-.818.974-.82 1.4-2.21t.427-3.081q0-2.746-.82-4.632-.817-1.886-2.27-2.961l-.647-.7q1.706-.032 3.198 1.024 1.494 1.057 2.424 2.92.93 1.858.93 4.298 0 3.994-1.971 6.17-1.97 2.175-5.367 2.176M50.802 244.236q-1.876 0-2.875-.638-.998-.642-1.374-1.835-.376-1.195-.376-2.868v-9.812h-4.232v-2.184H54.06v2.184h-5.154v9.692q0 1.57.36 2.416.357.844 1.706.844h1.945v2.201ZM61.997 244.236q-1.894 0-2.901-.581a3 3 0 0 1-1.383-1.705q-.375-1.128-.374-2.764v-12.287h2.764v12.15q0 1.434.35 2.21.348.776 1.715.776h.699v2.201ZM72.815 244.236q-1.876 0-2.875-.638-.998-.642-1.374-1.835-.376-1.195-.376-2.868v-9.812h-4.232v-2.184h12.116v2.184H70.92v9.692q0 1.57.36 2.416.357.844 1.706.844h1.945v2.201ZM85.733 242.308q1.621 0 2.593-.853.974-.852 1.39-2.363.42-1.511.42-3.508 0-2.013-.42-3.54-.416-1.529-1.39-2.39-.972-.862-2.593-.862-1.57 0-2.508.863-.94.86-1.35 2.38-.407 1.52-.407 3.549 0 1.998.408 3.516.409 1.519 1.349 2.363.938.846 2.508.845m0 2.167q-2.27 0-3.857-1.05-1.587-1.048-2.406-3.036-.819-1.99-.82-4.805.001-2.849.82-4.855.82-2.005 2.406-3.054 1.587-1.05 3.857-1.05 2.321 0 3.925 1.05 1.605 1.05 2.448 3.054.846 2.006.846 4.855 0 2.816-.846 4.805-.843 1.988-2.448 3.036-1.605 1.05-3.925 1.05M102.423 225.277l.837-5.152h2.968l-2.098 5.152Zm1.161 19.266q-2.286 0-3.738-.852-1.448-.854-2.132-2.433-.683-1.578-.683-3.745v-10.614h2.748v10.306q0 1.4.307 2.518.306 1.118 1.126 1.766t2.338.649q1.758-.001 2.678-.82.922-.817 1.264-2.244.341-1.425.342-3.233 0-2.168-.326-4.472a33 33 0 0 0-.938-4.47h2.748q.631 2.218.938 4.599.306 2.378.307 4.581 0 2.629-.776 4.531-.775 1.903-2.33 2.917-1.552 1.017-3.873 1.016M122.099 244.236q-1.876 0-2.875-.638-.998-.642-1.375-1.835-.376-1.195-.376-2.868v-9.812h-4.232v-2.184h12.116v2.184h-5.153v9.692q0 1.57.36 2.416.357.844 1.705.844h1.946v2.201ZM135.017 242.308q1.621 0 2.593-.853.974-.852 1.39-2.363.42-1.511.42-3.508 0-2.013-.42-3.54-.416-1.529-1.39-2.39-.972-.862-2.593-.862-1.57 0-2.508.863-.94.86-1.35 2.38-.408 1.52-.408 3.549 0 1.998.408 3.516.41 1.519 1.35 2.363.938.846 2.508.845m0 2.167q-2.27 0-3.858-1.05-1.585-1.048-2.405-3.036-.819-1.99-.82-4.805.001-2.849.82-4.855.82-2.005 2.405-3.054 1.589-1.05 3.858-1.05 2.32 0 3.925 1.05t2.448 3.054q.845 2.006.845 4.855.001 2.816-.845 4.805-.844 1.988-2.448 3.036-1.606 1.05-3.925 1.05M2.781 280.236v-22.97h3.09l11.16 18.516v-18.515h2.73v22.97h-3.107l-11.16-18.533v18.532ZM30.34 280.51q-3.019 0-4.683-1.23-1.665-1.228-1.664-3.549 0-1.996 1.016-3.055 1.015-1.057 2.91-1.552-1.743-.428-2.5-1.52-.76-1.091-.76-2.354 0-1.108.538-2.176.536-1.066 1.783-1.758 1.245-.69 3.344-.69 2.748 0 4.369 1.133 1.62 1.138 1.69 3.337h-2.611q-.018-1.04-.956-1.716-.938-.673-2.492-.673-1.62.001-2.346.785-.726.785-.725 1.911 0 1.297 1.007 1.988t2.474.692h1.655v2.132H31.16q-2.355 0-3.421.828-1.067.829-1.067 2.45 0 1.517 1.024 2.217 1.022.702 2.663.701 2.01-.001 3.088-.761 1.073-.757 1.126-2.328h2.61q-.084 1.638-.835 2.798-.752 1.16-2.236 1.775t-3.772.615M47.305 280.544q-2.288-.001-3.74-.854a5.1 5.1 0 0 1-2.131-2.432q-.683-1.578-.683-3.745V262.9H43.5v10.305q0 1.399.307 2.519.306 1.117 1.127 1.765.818.648 2.337.648 1.757 0 2.679-.819.921-.818 1.264-2.245.34-1.423.34-3.232 0-2.168-.324-4.472a33 33 0 0 0-.94-4.47h2.749q.631 2.217.939 4.6.306 2.379.306 4.58 0 2.63-.776 4.531-.775 1.901-2.33 2.918-1.553 1.016-3.872 1.016M61.536 278.018v-2.695a5.6 5.6 0 0 0 1.808 2.107q1.144.793 2.782.793 1.878 0 2.858-1.757.982-1.759.982-5.035 0-3.533-1.042-5.077-1.04-1.544-2.917-1.544-2.032 0-3.217 1.425t-1.186 4.667v15.444h-2.748v-15.411q0-2.082.495-3.65.495-1.57 1.435-2.62a5.9 5.9 0 0 1 2.26-1.57q1.321-.52 2.96-.521 3.123 0 4.949 2.218 1.828 2.219 1.827 6.622 0 2.97-.76 5-.76 2.031-2.15 3.054-1.391 1.024-3.285 1.024-1.706 0-2.987-.657a5.43 5.43 0 0 1-2.064-1.817M83.19 278.308q1.621 0 2.593-.853.974-.852 1.39-2.363.42-1.511.42-3.508 0-2.013-.42-3.54-.416-1.529-1.39-2.39-.972-.862-2.593-.862-1.57 0-2.508.863-.94.86-1.35 2.38-.407 1.52-.407 3.549 0 1.998.408 3.516.409 1.519 1.349 2.363.938.846 2.508.845m0 2.167q-2.27 0-3.857-1.05-1.587-1.048-2.406-3.036-.819-1.99-.82-4.805.001-2.849.82-4.855.82-2.005 2.406-3.054 1.587-1.05 3.857-1.05 2.321 0 3.925 1.05 1.605 1.05 2.448 3.054.846 2.006.846 4.855 0 2.816-.846 4.805-.843 1.988-2.448 3.036-1.605 1.05-3.925 1.05M100.375 278.308q1.552 0 2.67-.836 1.12-.836 1.784-2.219v-7.201a6.4 6.4 0 0 0-1.648-2.287q-1.047-.921-2.584-.921-1.979 0-3.004 1.792-1.023 1.792-1.024 5.017.001 3.276.974 4.966.972 1.689 2.832 1.689m-.63 2.236q-2.784 0-4.388-2.236-1.603-2.235-1.604-6.655 0-2.954.778-4.957.776-2.006 2.201-3.037 1.425-1.034 3.37-1.034 1.621 0 2.815.75a5.65 5.65 0 0 1 1.912 1.998l.086-2.474h2.61v11.98q0 1.586.36 2.448.357.86 1.706.86h.256v2.186h-.632q-1.433 0-2.296-.341t-1.304-.948a4.1 4.1 0 0 1-.65-1.373 7.2 7.2 0 0 1-2.184 2.048q-1.297.784-3.037.785M116.229 286.346l.017-6.862 2.73.018v6.844Zm.017-6.366-6.076-17.08h2.902l4.47 14.162 4.267-14.163h2.816l-5.665 17.167ZM130.7 286.346l.018-6.862 2.73.018v6.844Zm.018-6.366-6.076-17.08h2.901l4.47 14.162 4.267-14.163h2.816l-5.665 17.167ZM146.91 280.51q-3.02 0-4.684-1.23-1.665-1.228-1.664-3.549 0-1.996 1.016-3.055 1.016-1.057 2.91-1.552-1.743-.428-2.5-1.52-.76-1.091-.76-2.354 0-1.108.538-2.176.536-1.066 1.783-1.758 1.245-.69 3.344-.69 2.748 0 4.369 1.133 1.62 1.138 1.69 3.337h-2.611q-.018-1.04-.956-1.716-.939-.673-2.492-.673-1.62.001-2.346.785-.725.785-.725 1.911 0 1.297 1.007 1.988t2.474.692h1.655v2.132h-1.228q-2.355 0-3.421.828-1.067.829-1.067 2.45 0 1.517 1.024 2.217 1.023.702 2.663.701 2.011-.001 3.088-.761 1.073-.757 1.126-2.328h2.611q-.086 1.638-.836 2.798-.752 1.16-2.236 1.775t-3.772.615M161.945 280.236q-1.894 0-2.901-.581a3 3 0 0 1-1.383-1.705q-.375-1.128-.375-2.764v-12.287h2.764v12.15q0 1.433.351 2.21.348.776 1.715.776h.698v2.201ZM171.689 278.308q1.552 0 2.67-.836 1.12-.836 1.784-2.219v-7.201a6.4 6.4 0 0 0-1.648-2.287q-1.047-.921-2.584-.921-1.98 0-3.004 1.792t-1.024 5.017q.001 3.276.974 4.966.972 1.689 2.832 1.689m-.631 2.236q-2.782 0-4.387-2.236-1.603-2.235-1.604-6.655 0-2.954.778-4.957.776-2.006 2.201-3.037 1.425-1.034 3.37-1.034 1.621 0 2.815.75a5.65 5.65 0 0 1 1.912 1.998l.086-2.474h2.61v11.98q0 1.586.359 2.448.358.86 1.707.86h.256v2.186h-.632q-1.433 0-2.296-.341t-1.304-.948a4.1 4.1 0 0 1-.65-1.373 7.2 7.2 0 0 1-2.184 2.048q-1.297.784-3.037.785M183.993 280.236V262.9h2.782v8.123l6.654-8.123h3.226l-6.604 7.85 7.201 9.487h-3.396l-5.733-7.696-1.348 1.178v6.518ZM205.017 261.277l.836-5.152h2.97l-2.1 5.152Zm-5.375 18.96v-17.338h2.679l.068 2.559q.699-1.007 2.005-1.92 1.304-.912 3.303-.912 2.472-.001 3.608 1.552 1.134 1.553 1.134 4.3v17.868h-2.764v-17.457q0-1.161-.23-2.058-.231-.894-.81-1.408-.582-.51-1.673-.51-1.62 0-2.739.869-1.117.87-1.8 1.91v12.545zM225.221 284.605q.24-1.503.138-2.356-.102-.852-.658-1.244-.555-.394-1.68-.495l-1.213-.103q-1.637-.155-2.832-1.006-1.194-.855-1.835-2.587-.64-1.73-.64-4.513 0-3.14.75-5.299t2.22-3.267q1.467-1.11 3.617-1.109 1.64 0 2.85.495 1.213.494 1.886 1.476.675.98.725 2.5h-2.713q-.068-1.077-.716-1.682-.649-.605-1.98-.606-1.365 0-2.21.905-.845.904-1.229 2.56-.384 1.655-.384 3.941 0 2.117.384 3.362.385 1.247 1.135 1.818.752.573 1.86.691l1.348.119q1.57.153 2.543.812.974.657 1.305 1.996.333 1.34-.025 3.592ZM2.781 316.236v-22.97h2.952v11.058l8.43-11.057h3.346l-8.55 10.836 9.233 12.133h-3.534l-8.925-11.792v11.792ZM26.535 314.308q1.553 0 2.67-.836 1.119-.836 1.785-2.219v-7.201a6.4 6.4 0 0 0-1.648-2.287q-1.049-.921-2.584-.921-1.98 0-3.004 1.792t-1.024 5.017q0 3.276.973 4.966.972 1.689 2.832 1.689m-.63 2.236q-2.783 0-4.387-2.236-1.603-2.235-1.604-6.655 0-2.954.777-4.957.776-2.006 2.201-3.037 1.425-1.034 3.37-1.034 1.621 0 2.816.75a5.65 5.65 0 0 1 1.912 1.998l.085-2.474h2.61v11.98q0 1.586.36 2.448.356.86 1.706.86h.256v2.186h-.632q-1.433 0-2.296-.341-.861-.341-1.304-.948a4.1 4.1 0 0 1-.65-1.373 7.2 7.2 0 0 1-2.183 2.048q-1.298.784-3.038.785M43.345 316.236q-1.894 0-2.901-.581a3 3 0 0 1-1.383-1.705q-.375-1.128-.375-2.764v-12.287h2.764v12.15q0 1.433.35 2.21t1.716.776h.698v2.201ZM50.547 316.236 44.812 298.9h2.901l4.352 14.657 4.386-14.657h2.816L53.6 316.236ZM68.02 314.308q1.62 0 2.593-.853.973-.852 1.39-2.363.42-1.511.42-3.508 0-2.013-.42-3.54-.417-1.529-1.39-2.39-.971-.862-2.594-.862-1.569 0-2.508.863-.94.86-1.349 2.38-.408 1.52-.408 3.549 0 1.998.408 3.516.41 1.519 1.35 2.363.937.846 2.507.845m0 2.167q-2.269 0-3.857-1.05-1.586-1.048-2.405-3.036-.82-1.99-.82-4.805 0-2.849.82-4.855.82-2.005 2.405-3.054 1.588-1.05 3.857-1.05 2.32 0 3.926 1.05 1.604 1.05 2.448 3.054.846 2.006.845 4.855 0 2.816-.845 4.805-.844 1.988-2.448 3.036-1.605 1.05-3.926 1.05M86.28 316.236q-1.876 0-2.875-.638-.998-.642-1.375-1.835-.376-1.195-.376-2.868v-9.812h-4.232v-2.184h12.116v2.184h-5.153v9.692q0 1.57.36 2.416.357.844 1.705.844h1.946v2.201ZM99.198 314.308q1.621 0 2.593-.853.974-.852 1.39-2.363.42-1.511.42-3.508 0-2.013-.42-3.54-.416-1.529-1.39-2.39-.972-.862-2.593-.862-1.57 0-2.508.863-.94.86-1.35 2.38-.408 1.52-.408 3.549 0 1.998.408 3.516.41 1.519 1.35 2.363.938.846 2.508.845m0 2.167q-2.27 0-3.858-1.05-1.585-1.048-2.405-3.036-.819-1.99-.82-4.805.001-2.849.82-4.855.82-2.005 2.405-3.054 1.589-1.05 3.858-1.05 2.32 0 3.925 1.05t2.448 3.054q.846 2.006.845 4.855.001 2.816-.845 4.805-.844 1.988-2.448 3.036-1.605 1.05-3.925 1.05M110.614 322.396V298.9h2.782v11.313q0 1.178.221 2.031t.855 1.305q.63.452 1.808.452 1.671.001 2.772-.776 1.1-.776 1.784-1.766v-12.559h2.764v17.337h-2.662l-.069-2.542q-.885 1.346-2.116 2.03a5.26 5.26 0 0 1-2.593.683q-1.246 0-2.312-.563-1.066-.564-1.715-1.68-.65-1.118-.65-2.774h1.826v11.006ZM129.078 297.277l.836-5.152h2.97l-2.1 5.152Zm4.08 18.96q-1.895 0-2.901-.582a3 3 0 0 1-1.383-1.705q-.376-1.128-.376-2.764v-12.287h2.765v12.15q0 1.434.35 2.209.349.777 1.716.776h.698v2.203zM142.9 314.308q1.552 0 2.67-.836 1.12-.836 1.784-2.219v-7.201a6.4 6.4 0 0 0-1.648-2.287q-1.048-.921-2.584-.921-1.98 0-3.004 1.792-1.023 1.792-1.024 5.017.001 3.276.974 4.966.972 1.689 2.832 1.689m-.631 2.236q-2.782 0-4.387-2.236-1.603-2.235-1.604-6.655 0-2.954.778-4.957.777-2.006 2.2-3.037 1.425-1.034 3.372-1.034 1.622 0 2.814.75a5.65 5.65 0 0 1 1.912 1.998l.086-2.474h2.61v11.98q0 1.586.359 2.448.358.86 1.707.86h.256v2.186h-.632q-1.433 0-2.296-.341t-1.304-.948a4.1 4.1 0 0 1-.65-1.373 7.2 7.2 0 0 1-2.184 2.048q-1.297.784-3.037.785M163.071 320.605q.24-1.503.138-2.356-.102-.852-.658-1.244-.554-.394-1.68-.495l-1.213-.103q-1.637-.155-2.832-1.006-1.194-.855-1.835-2.587-.64-1.73-.64-4.513 0-3.14.751-5.299.75-2.159 2.22-3.267 1.466-1.11 3.616-1.109 1.64 0 2.85.495 1.213.494 1.886 1.476.675.98.725 2.5h-2.713q-.068-1.077-.716-1.682-.649-.604-1.98-.606-1.365 0-2.21.905-.845.904-1.229 2.56-.384 1.655-.384 3.941 0 2.117.384 3.362.385 1.247 1.135 1.818.752.573 1.86.691l1.348.119q1.57.153 2.543.812.974.657 1.305 1.996.333 1.34-.025 3.592ZM145.149 165.744c-4.346-2.11-8.255-18.312-10.104-22.667l-4.91-11.56c9.764.468 19.56 4.404 25.66 12.498 3.672 4.877 4.227 10.262 6.987 13.59.292.354 1.665-.517 1.773-.964.108-.444.18-1.57-.008-2.044l-4.7-11.933c11.82-7.879 18.695 2.963 20.671-1.743-3.701-3.814-10.136-6.012-15.47-4.518l-8.527 2.388c-8.136-7.463-18.276-11.656-29.579-12.514-5.228-6.721-12.079-10.878-19.49-14.734-1.863-5.46.442-12.206 4.02-16.292 3.765-4.296 10.069-7.312 16.123-6.215 9.028 4.045 21.42 10.033 25.467 16.95 14.472 24.742 36.57 9.649 36.37 9.429l-1.523-1.666c-10.478 5.295-21.723 2.128-28.858-7.242l-7.329-9.627c7.248-2.443 12.588-5.43 17.508-10.281 9.601 1.128 15.405 6.657 25.27.958.409-.298-.26-2.334-.606-2.552-4.917 1.807-9.919 1.948-14.897-.04l-6.57-2.622c5.568-10.616 3.987-18.156 2.138-15.807l-1.426 1.81c-1.9 13.091-12.308 23.627-25.597 24.295-14.015-7.102-20.792-9.452-24.296-9.626 7.208-5.628 13.707-11.842 16.964-20.463 2.881-7.625 9.972-5.876 21.805-7.172 3.414-.375 6.735-2.432 9.822-4.303 1.848-1.12 2.208-1.393 4.576-3.437 1.525-1.317.102-2.613-.378-2.516-3.952.801-6.584 7.263-21.088 7.716-4.049.127-7.732.307-12.14 1.54 2.47-8.543-.546-15.27 2.36-26.656.236-.92.591-3.14-1.26-3.497-1.737-.336-2.112 1.034-2.258 1.73-1.016 4.816-1.234 12.367-1.272 18.614-.112 18.222-12.37 30.189-26.374 39.372l-7.01 5.408-.007-74.444c3.823-2.02 5.553-5.431 4.587-9.332-.699-2.828-3.77-5.695-7.336-5.571-3.91.136-6.579 3.127-7.072 6.257-.578 3.668 1.122 6.732 4.561 8.948l.113 103.956-.17 65.119c-3.795 1.944-5.567 5.404-4.755 8.944.81 3.535 3.955 5.867 7.585 5.713 3.662-.154 6.531-2.644 7.075-6.4.472-3.27-1.35-6.221-4.605-8.226l-.002-66.583c10.975 3.55 17.004 12.144 21.734 21.715l8.58 26.332"/><path fill="url(#a)" d="M249.695 406.259c-.761-3.613-.925-9.274-.954-13.96-.084-13.667-9.276-22.642-19.78-29.529l-.283-.248 7.216.944c5.406 4.221 10.279 8.881 12.722 15.347 2.161 5.719 7.479 4.407 16.354 5.379 2.56.281 5.051 1.824 7.365 3.227 1.387.84 1.657 1.045 3.433 2.578 1.144.988.077 1.96-.282 1.887-2.964-.601-4.939-5.447-15.816-5.787-3.038-.095-5.8-.23-9.106-1.154 1.852 6.406-.409 11.452 1.771 19.99.176.691.442 2.356-.945 2.624a2 2 0 0 1-.383.039c-.979 0-1.214-.871-1.312-1.337" transform="matrix(1.33333 0 0 -1.33333 -191.263 567.638)"/><path fill="url(#b)" d="m242.076 314.685 4.217-12.91c-.553-6.23 4.699-13.72 5.917-15.927.45-.815.773.637.773.637.628.57-4.57 6.522-3.616 13.379l7.201-1.839c.688-.277 1.822-.329 2.051.655l-6.426 3.12c-3.258 1.581-5.036 10.28-6.423 13.546z" transform="matrix(1.33333 0 0 -1.33333 -191.263 567.638)"/><path fill="#44aba4" fill-rule="evenodd" d="M141.724 185.816a2.88 2.88 0 1 1 5.614-1.285 2.88 2.88 0 0 1-5.614 1.285M149.19 172.084a4.189 4.189 0 1 1 8.165-1.87 4.189 4.189 0 0 1-8.166 1.87"/><path fill="url(#c)" d="M284.398 340.43c-2.251-.991-2.922-1.18-2.922-1.18l-6.391-3.601s3.522-.76 12.364 3.264c2.564 1.167 9.768 5.153 9.768 5.153l-4.066.729s.311-.374-8.753-4.365" transform="matrix(1.33333 0 0 -1.33333 -191.263 567.638)"/><path fill="#44aba4" fill-rule="evenodd" d="M198.392 107.813a4.189 4.189 0 1 1 8.377.001 4.189 4.189 0 0 1-8.377-.001M139.764 24.281a4.038 4.038 0 1 1 8.077 0 4.038 4.038 0 0 1-8.077 0M173.568 45.743a3.31 3.31 0 1 1 6.62.001 3.31 3.31 0 0 1-6.62-.001"/><path fill="url(#d)" d="M287.064 361.083a2.483 2.483 0 1 1 4.965 0 2.483 2.483 0 0 1-4.965 0" transform="matrix(1.33333 0 0 -1.33333 -191.263 567.638)"/><path fill="url(#e)" d="M271.993 376.603a2.483 2.483 0 0 1 4.965 0 2.482 2.482 0 1 1-4.965 0" transform="matrix(1.33333 0 0 -1.33333 -191.263 567.638)"/><path fill="url(#f)" d="M277.056 319.927a2.481 2.481 0 1 1 4.497-2.104 2.483 2.483 0 0 1-1.196 3.301 2.484 2.484 0 0 1-3.301-1.197" transform="matrix(1.33333 0 0 -1.33333 -191.263 567.638)"/><path fill="url(#g)" d="M266.079 309.219a2.987 2.987 0 1 1 3.248-5.016 2.987 2.987 0 0 1-1.627 5.496 2.97 2.97 0 0 1-1.621-.48" transform="matrix(1.33333 0 0 -1.33333 -191.263 567.638)"/><path fill="#44aba4" d="M184.165 33.236h-3.27v-3.269h3.27zM203.534 39.482h-3.27v-3.27h3.27zM213.74 67.508h-3.27V64.24h3.27zM241.806 84.927h-2.652v-2.652h2.652zM262.19 93.126h-2.547v-2.547h2.547zM261.686 111.784h-2.547v-2.546h2.547zM276.757 105.171h-2.547v-2.547h2.547zM255.207 126.074h-2.546v-2.547h2.546zM223.45 83.647h-4.203v-4.203h4.203zM243.214 110.763h-4.203v-4.203h4.203zM222.327 153.438h-3.476v-3.476h3.476zM202.72 171.226h-3.475v-3.476h3.476zM184.097 185.806h-3.858v-3.858h3.858zM164.317 187.519h-3.858v-3.857h3.858zM242.218 132.456h-3.285v-3.285h3.285zM223.693 131.244h-5.236v-5.236h5.236zM223.647 106.024h-5.27v-5.27h5.27zM198.814 136.755H192.4v-6.415h6.415zM202.335 58.15h-2.568v-2.568h2.568zM228.206 67.787h-2.568v-2.568h2.568zM181.99 164.24a1.185 1.185 0 1 1 2.371 0 1.185 1.185 0 0 1-2.37 0M200.855 152.192a1.857 1.857 0 1 1-3.715 0 1.857 1.857 0 0 1 3.715 0M200.569 106.647a1.462 1.462 0 1 1 2.925 0 1.462 1.462 0 0 1-2.925 0M204.126 93.682a1.541 1.541 0 1 1-3.082 0 1.541 1.541 0 0 1 3.082 0M182.149 69.293a1.185 1.185 0 1 1 2.37 0 1.185 1.185 0 0 1-2.37 0M221.105 49.165a1.185 1.185 0 1 1 2.371 0 1.185 1.185 0 0 1-2.37 0M247.712 74.29a1.185 1.185 0 1 1 2.37 0 1.185 1.185 0 0 1-2.37 0"/><path fill="#44aba4" fill-rule="evenodd" d="M36.345 341.066H1.55c-.856 0-1.549-.693-1.549-1.55v-.006c0-.856.693-1.55 1.55-1.55h34.795c.856 0 1.55.694 1.55 1.55v.007c0 .856-.694 1.55-1.55 1.55"/></svg>